<svg t="1703510500224" class="icon" viewBox="0 0 1306 1024" version="1.1" xmlns="http://www.w3.org/2000/svg" p-id="18899" width="200" height="200"><path d="M1292.867128 1023.899707c-1.823508 0-4.55877-0.911754-6.382278-1.823508-0.911754 0-76.587333-38.293667-215.173937-103.028198-128.55731-60.175762-273.526191-222.467968-325.496166-288.114255-7.294032-0.911754-13.67631-0.911754-20.970342-1.823507C341.907738 599.934112 13.67631 37.381913 0 13.67631L23.705603 0c3.647016 5.470524 333.701953 572.581492 702.050556 601.757619-16.411571-30.087881-19.146833-66.55804-6.382278-93.910658 10.029294-22.793849 34.646651-51.058222 92.998905-59.264008 77.499087-10.941048 118.528016 15.499817 135.851342 31.911389 16.411571 15.499817 25.529111 35.558405 24.617357 52.88173-1.823508 25.529111-12.764556 46.499452-31.911389 61.99927-31.911389 26.440865-84.793119 39.205421-158.645191 37.381912 58.352254 72.028564 186.909564 208.791659 300.87881 261.673389 69.293302 31.911389 123.086786 58.352254 159.556945 75.67558l-59.264008-72.940318 20.970341-17.323325 98.469429 121.263278c3.647016 4.55877 3.647016 11.852802 0 17.323325-1.823508 3.647016-6.382278 5.470524-10.029294 5.470524z m-532.464318-419.406826c97.557675 5.470524 142.233619-12.764556 163.20396-30.087881 13.67631-11.852802 20.970341-25.529111 22.79385-43.76419 0.911754-6.382278-3.647016-19.146833-15.499818-30.999635-23.705603-22.793849-65.646286-31.911389-113.969246-24.617357-36.470159 5.470524-61.99927 20.058587-72.028563 42.852436-10.029294 22.793849-6.382278 52.88173 10.029293 77.499088 0.911754 2.735262 3.647016 5.470524 5.470524 9.117539z" fill="#7099EB" p-id="18900"></path><path d="M1032.816661 983.581947l4.230538-27.024388 257.606967 40.363348-4.230539 27.024388z" fill="#7099EB" p-id="18901"></path></svg>