<svg t="1703322998239" class="icon" viewBox="0 0 1024 1024" version="1.1" xmlns="http://www.w3.org/2000/svg" p-id="4308" width="200" height="200"><path d="M893.891163 331.790315c3.067399 36.297554-7.157264 69.016475-26.584124 99.179231-7.157264 11.758362-17.381927 20.960559-29.651522 26.584123-14.314528 7.668497-31.696455 5.112332-42.943585-5.623564-9.202197-7.668497-17.89316-15.848228-27.095357-24.027958-16.870694-14.314528-36.808787-24.539191-58.280579-29.14029-4.089865-1.022466-8.690964-3.067399-12.780829-3.067399-6.646031 1.022466-12.780829 2.556166-18.915626 4.601099-1.533699 1.022466-3.067399 2.556166-3.578632 4.089865-0.511233 3.067399-2.556166 6.134798-5.623565 7.668497-10.735896 6.134798-21.471792 11.247129-31.185222 18.404394-22.494259 16.870694-32.207688 39.876186-27.095357 66.971542 3.067399 16.359461 13.803295 26.584124 30.162756 31.696456 5.112332 1.533699 10.735896 4.089865 15.848227 5.623564 1.022466 0.511233 1.533699 0.511233 2.556166 0.511233 22.494259 2.044933 44.988517 4.089865 66.971543 6.134798 6.646031 0.511233 13.292062 0 19.938093 0.511233 3.067399 0.511233 6.134798 1.533699 9.202196 3.067399 1.533699 0.511233 3.067399 0.511233 5.112332 1.022466 40.387419 0 75.151273 13.803295 102.24663 43.966051 12.269596 13.292062 18.915627 28.629056 18.404393 46.522217-0.511233 5.623565-2.044933 11.247129-3.578632 16.359461-1.022466 4.601098-2.044933 8.690964-2.556165 13.292062 0 2.044933-1.022466 4.089865-3.067399 5.112331-3.578632 2.044933-6.646031 4.601098-9.202197 7.668498-5.623565 8.690964-12.269596 16.359461-19.938093 23.516724-1.533699 1.533699-2.556166 3.067399-4.089865 4.601099-14.825761 18.915627-35.786321 29.651523-55.21318 42.432351-5.623565 3.578632-11.247129 6.646031-17.381927 9.71343-3.578632 1.533699-7.668497 2.044933-11.758363 3.067399-2.556166 0.511233-4.601098 1.022466-6.646031 2.556166l-33.741388 23.005492c-3.067399 1.533699-6.134798 4.089865-8.690963 6.646031-5.112332 8.17973-13.803295 11.247129-21.983026 14.825761-1.533699 0.511233-2.556166 1.533699-3.067399 2.556166l25.050425-5.623565 0.511233 0.511233-5.112332 3.067399c-25.050424 15.848228-50.100849 31.696455-75.151273 47.03345-15.336995 9.202197-30.673989 18.404393-46.010983 27.095357-4.089865 2.044933-8.17973 4.089865-12.780829 5.623564-1.022466 0-1.533699 0.511233-2.556166 1.022467-9.202197 8.690964-20.449326 12.780829-32.718921 14.825761-16.359461 3.067399-32.718922 5.112332-49.078383 7.157264-3.067399 0.511233-6.646031 1.022466-9.71343 0.511233 2.556166-2.556166 5.112332-5.112332 8.179731-7.157264l32.207688-18.404393c8.17973-4.601098 16.359461-9.202197 24.539191-14.314528 3.067399-2.044933 5.112332-4.089865 7.668498-7.157264-5.112332-1.022466-10.735896 0-15.336995 2.556165-10.224663 5.112332-20.960559 9.71343-31.696455 13.803295-8.690964 3.578632-17.89316 7.157264-26.584124 10.735897-7.157264 3.067399-13.803295 7.157264-20.449326 10.735896-7.157264 3.578632-14.825761 5.623565-22.494259 6.134797-12.780829 0.511233-24.027958 6.646031-35.78632 11.758363-9.202197 4.089865-18.404393 8.690964-27.60659 12.780829l-0.511233-1.022467 16.35946-13.292062c-10.224663-1.022466-20.449326 0.511233-30.162755 4.601099-32.718922 15.336995-65.437843 30.162756-98.156765 45.49975-14.825761 7.157264-29.651523 15.848228-43.966051 24.539191-7.157264 4.601098-14.314528 10.224663-20.960559 15.336995-2.556166 2.044933-6.646031 2.556166-9.71343 1.022466-4.089865-1.022466-8.17973-1.022466-12.269596 0-8.690964 2.556166-17.381927 5.623565-26.072891 8.690964-3.578632 1.022466-7.157264 2.044933-11.247129 2.044932 7.668497-6.646031 14.314528-13.803295 23.516725-18.404393 14.825761-7.157264 29.14029-14.825761 43.966051-21.983025 4.089865-2.044933 6.134798-4.089865 4.089865-8.690964-10.735896 0-19.938093 4.601098-29.140289 9.71343l-1.022467-1.022466c0.511233-0.511233 1.533699-0.511233 2.044933-1.022467 1.022466-0.511233 2.044933-1.533699 3.067399-2.044932 9.202197-8.690964 20.960559-14.314528 33.230155-16.870694 12.269596-3.578632 24.027958-8.17973 35.275087-12.780829 12.780829-5.112332 25.561658-9.71343 38.853719-14.314528-4.089865 2.556166-7.668497 5.623565-12.269595 8.17973-5.112332 2.556166-10.224663 5.112332-15.848228 7.157264-1.533699 0-3.067399 1.022466-3.578632 2.556166-1.022466 1.022466-1.022466 2.556166-1.022466 4.089865 8.690964 1.533699 16.870694-2.556166 25.050424-5.112331 6.646031-2.044933 12.269596-6.134798 16.870694-11.24713 3.578632-3.578632 7.668497-6.646031 12.269596-9.202196 2.556166-1.533699 3.067399-3.067399 2.044932-5.623565-0.511233-1.022466-1.022466-2.044933-0.511233-3.067399 0.511233-1.022466 1.022466-2.044933 2.044933-2.556166 2.044933-1.022466 4.089865-2.556166 6.134798-3.578632 9.71343-5.112332 19.42686-9.71343 29.140289-14.825761 4.601098-2.556166 10.224663-3.578632 15.336995-1.5337 1.533699 0.511233 3.067399 1.022466 4.601098 1.022467 6.646031 1.533699 13.803295 0 19.938093-3.578632 8.690964-5.112332 18.404393-8.17973 28.117823-12.269596 4.089865-1.533699 7.668497-3.578632 11.247129-6.134798 2.556166-2.556166 5.112332-5.112332 7.668498-8.17973l-1.022467-1.5337c-3.067399 0-6.646031 0.511233-9.71343 1.022467-8.17973 3.067399-16.359461 6.646031-24.539191 10.224663-7.668497 3.578632-15.336995 7.668497-22.494258 11.247129h4.601098v1.022466l-26.072891 4.601099v-0.511233c8.690964-4.601098 17.381927-9.71343 26.584124-14.314529 6.134798-3.067399 11.758362-6.646031 17.89316-9.713429 8.17973-4.601098 14.825761-10.735896 19.938093-17.893161 1.533699-2.556166 4.089865-3.578632 7.157264-3.578632 9.71343-0.511233 19.42686-2.556166 26.584124-9.202196 1.022466-1.533699 2.556166-3.067399 3.067399-5.112332-0.511233-0.511233-0.511233-1.022466-1.022466-1.533699-9.202197 1.533699-18.404393 2.556166-27.60659 4.089865-16.359461 3.067399-32.207688 8.690964-47.544683 16.359461-8.17973 4.089865-10.224663 6.646031-13.292062 15.336994-1.533699 0-3.067399 0-4.601099-0.511233-3.578632-0.511233-7.157264-1.022466-9.202196 3.067399-1.022466 1.022466-2.044933 1.533699-3.578632 2.044932-26.072891 8.17973-51.634548 15.848228-77.707439 24.027958-2.044933 0.511233-4.089865 1.022466-6.134798 0.511234 1.022466-0.511233 2.044933-1.533699 2.556166-2.044933 21.471792-16.870694 42.943585-33.741388 63.904144-51.123315 5.112332-4.089865 9.71343-9.202197 16.870694-8.17973 1.022466 0 2.044933-0.511233 3.067398-1.022467 5.112332-2.044933 11.247129-2.556166 16.359461-1.533699 16.870694 3.067399 33.741388 2.556166 49.078383-6.134798 0.511233 0 0.511233-0.511233 1.022466-0.511233 4.601098-3.578632 10.224663-6.134798 16.359461-6.134798 10.224663-0.511233 17.381927-8.17973 23.516725-15.848228 0-1.533699-1.022466-3.578632-2.044933-4.601098-2.044933-0.511233-4.089865-1.022466-5.623565-1.022466 6.646031-4.089865 13.292062-7.668497 19.938093-12.269596 4.089865-2.556166 8.17973-5.623565 12.269596-8.690963 25.050424-23.005492 53.679481-42.432351 83.842237-57.258113 9.202197-4.601098 18.915627-6.646031 28.117823-10.224663 4.601098-2.044933 8.690964-4.089865 12.780829-6.646031 12.269596-6.646031 24.539191-13.803295 36.808786-20.449326 22.494259-11.758362 44.988517-22.494259 64.926611-38.85372 12.269596-9.71343 23.005492-21.471792 34.252621-32.718921 4.089865-3.578632 1.533699-12.269596-3.578632-15.848228-5.112332-3.578632-10.224663-6.646031-14.825762-10.224663-7.668497-5.623565-16.870694-7.157264-25.561657-8.690963-24.539191-4.089865-49.589616-4.601098-74.64004-5.623565-16.359461-0.511233-33.230155-3.067399-49.078383-7.668497-14.314528-3.578632-26.584124-12.269596-35.275087-24.539192-2.044933-2.556166-4.601098-5.112332-7.157264-7.157264-6.134798-6.646031-10.224663-14.314528-11.758363-23.005491-3.067399-13.292062-2.556166-26.584124-1.022466-39.364953 3.067399-33.741388 18.915627-61.859211 39.876186-87.932102 11.758362-14.825761 26.584124-26.584124 39.876185-39.876186l1.5337-1.533699c14.825761-8.690964 28.117823-19.42686 44.477284-26.584124 15.848228-7.157264 32.207688-12.780829 49.078382-16.870694 18.404393-3.578632 37.32002-3.067399 55.724414 1.022467 7.668497 1.533699 15.336995 3.067399 23.005492 4.089865 10.735896 1.533699 21.983025 0.511233 32.207688-3.067399 13.803295-4.601098 27.60659-9.202197 41.409885-14.825762 6.646031-3.578632 12.780829-7.157264 18.915627-11.758362l1.022466 8.690964 24.027958-20.449326c2.556166 4.089865 5.112332 7.668497 7.668497 11.758362 0.511233 1.022466 0.511233 2.044933 0.511234 3.067399-2.556166 18.915627-2.556166 36.297554-1.022467 53.168248z m-244.880679 497.429855l23.516725-12.780829c-11.758362 1.022466-21.983025 6.646031-23.516725 12.780829z m11.758363-801.102347c-0.511233 1.022466-1.533699 2.556166-1.5337 4.089865-0.511233 11.247129-7.157264 19.938093-11.758362 29.651523-6.646031 14.314528-14.314528 29.14029-20.960559 43.454818-0.511233 0.511233-0.511233 1.022466-0.511233 2.044933l1.022466 0.511233 22.494258-32.207689c0 8.17973 0.511233 16.359461-4.089865 23.516725-4.089865 6.646031-7.668497 13.292062-11.247129 20.449326-1.022466 2.044933-2.044933 4.601098-2.044933 6.646031-1.022466 7.157264-1.533699 14.314528-4.601098 20.960559-0.511233 2.044933-0.511233 4.601098 0.511233 6.646031l1.5337 1.022467c2.044933-1.533699 4.089865-3.578632 6.134797-5.623565 4.089865-6.134798 8.17973-12.780829 12.269596-18.915627 1.533699-1.533699 3.578632-3.067399 5.623565-4.089865 1.533699-1.022466 3.578632-1.533699 5.623564-2.556166-0.511233 5.623565 0.511233 11.247129-3.067399 16.359461-6.134798 8.690964-11.247129 18.404393-15.336994 28.629057-1.022466 3.578632-3.578632 6.134798-5.112332 9.202196-3.067399 6.646031-5.623565 13.292062-8.17973 19.938093-6.646031 20.960559-17.89316 39.364953-30.162756 57.258113-26.584124 38.342486-46.010984 79.752371-63.392911 122.184723-23.516725 58.280579-42.432351 118.094858-56.746879 178.931602-6.646031 27.095357-11.247129 54.190714-13.803295 81.797305-1.022466 10.735896 0 21.471792-0.511233 32.207688-0.511233 8.17973-1.533699 16.870694-3.067399 25.050424-3.067399 12.780829-12.780829 19.42686-25.561658 20.96056-10.735896 1.022466-21.471792 0-31.696455-2.556166-1.022466-0.511233-2.044933-1.022466-2.556166-2.556166-1.533699-10.224663-6.134798-19.42686-13.292062-26.072891-7.668497-8.17973-16.359461-15.336995-25.050424-22.494258-10.735896-8.17973-15.848228-17.381927-14.314528-30.673989 1.022466-7.157264 1.022466-13.803295 1.533699-20.960559 1.022466-13.292062 0-26.584124-4.089865-38.85372l-14.825761-54.701947c-0.511233-1.022466-0.511233-1.533699 0-2.556166l13.292061 31.185222 2.044933-0.511233c0-3.578632 0-6.646031-0.511233-10.224663-3.578632-19.938093-11.247129-38.853719-17.89316-58.280579-7.157264-21.471792-18.915627-40.898652-29.14029-60.836745-3.578632-6.646031-6.134798-13.292062-9.71343-19.938093l2.044933 15.336995-1.022467 0.511233c-2.044933-4.601098-4.089865-9.71343-5.623564-14.314528-9.202197-24.027958-18.915627-48.055916-28.117823-72.083874-2.044933-6.134798-5.623565-11.758362-10.735897-15.848228-2.044933-1.533699-1.533699-6.134798-2.556165-9.71343 0 0-1.533699-0.511233-2.556166-1.022466-6.134798-1.022466-11.247129-4.601098-14.825761-9.71343-2.556166-3.578632-6.646031-5.623565-10.224663-8.17973-1.022466-0.511233-1.533699-1.533699-2.044933-3.067399 2.044933-9.202197-1.533699-16.870694-6.134798-24.539191-3.067399-3.067399-2.556166-8.17973 0.511233-11.24713 5.623565-6.646031 6.134798-14.825761 6.646031-23.005492 0-2.044933 0.511233-3.578632 0.511233-5.623564-0.511233-3.578632 1.533699-6.646031 4.089866-8.690964 4.089865-3.067399 6.646031-7.668497 6.646031-12.780828s3.067399-9.202197 7.668497-11.24713c2.556166-1.022466 3.578632-3.578632 3.578632-6.134798V160.015976c4.601098 1.022466 9.202197 2.556166 13.803295 4.089865 7.668497 4.089865 17.381927 2.556166 23.005492-4.601098 4.089865-5.112332 7.668497-5.112332 13.292062-1.5337 5.623565 4.089865 12.780829 5.112332 18.915626 2.556166 1.022466-0.511233 2.044933-0.511233 2.556166-0.511233 7.668497-1.533699 8.17973-1.022466 9.71343 6.134798 0 1.022466 0.511233 2.044933 1.022466 3.578632l7.157264-0.511233c2.044933 4.601098 3.578632 9.71343 6.646031 12.269595 10.224663 8.690964 13.292062 19.42686 14.825761 32.207689 2.044933 17.381927 5.623565 34.252621 8.690964 51.634548 6.134798 33.741388 16.359461 65.949076 25.561658 99.179231 8.690964 31.185222 17.89316 62.881677 26.584123 94.0669 0.511233 1.022466 1.022466 2.556166 1.5337 5.112331 2.044933-2.044933 3.578632-4.601098 5.112331-7.157264 16.359461-44.988517 32.207688-90.488268 49.078383-135.476785 16.359461-44.477284 32.718922-88.954568 50.100848-133.431852 6.134798-15.848228 15.336995-30.673989 23.005492-46.010983 0.511233-1.022466 1.533699-2.044933 2.556166-3.067399 8.690964-4.601098 8.690964-4.601098 14.825761-13.803295v8.17973l1.5337 1.022466 38.342486-38.342486-6.646031 27.095357 0.511233 0.511233 5.623565-8.17973c11.247129-15.848228 23.005492-31.185222 33.741388-47.544683 11.758362-17.89316 21.983025-36.808787 33.741388-54.701947 3.578632-4.601098 7.668497-8.690964 11.758362-12.780829l1.022466 0.511233-3.067398 5.623565c-3.578632 8.690964-6.646031 15.336995-9.71343 21.983025zM620.381428 114.004993l-10.735896 21.471792 1.022466 0.511233 10.735896-21.471792s-0.511233-0.511233-1.022466-0.511233z" fill="#515151" p-id="4309"></path></svg>