<?xml version="1.0" standalone="no"?><!DOCTYPE svg PUBLIC "-//W3C//DTD SVG 1.1//EN" "http://www.w3.org/Graphics/SVG/1.1/DTD/svg11.dtd"><svg t="1703523050696" class="icon" viewBox="0 0 1024 1024" version="1.1" xmlns="http://www.w3.org/2000/svg" p-id="20103" xmlns:xlink="http://www.w3.org/1999/xlink" width="200" height="200"><path d="M512.000128 0c226.2272 0 409.6 183.3728 409.6 409.6 0 110.08-43.6736 213.3248-119.9616 289.6384a410.5984 410.5984 0 0 1-110.4896 78.7968V819.5584a76.8 76.8 0 0 1-76.8 76.7744h-204.672a76.8 76.8 0 0 1-76.8-76.8v-41.472a408.8832 408.8832 0 0 1-110.5152-78.848A408.32 408.32 0 0 1 102.400128 409.6c0-226.2272 183.3728-409.6 409.6-409.6z m51.5328 105.6256a25.6 25.6 0 0 0 18.4576 31.1296 282.2912 282.2912 0 0 1 192.8704 171.5712 25.6 25.6 0 0 0 47.7696-18.432 333.4912 333.4912 0 0 0-227.968-202.752 25.6 25.6 0 0 0-31.1296 18.4832z" fill="#F59B3F" p-id="20104"></path><path d="M332.800128 972.8m25.6 0l307.2 0q25.6 0 25.6 25.6l0 0q0 25.6-25.6 25.6l-307.2 0q-25.6 0-25.6-25.6l0 0q0-25.6 25.6-25.6Z" fill="#F59B3F" p-id="20105"></path></svg>